<svg id="Group_37462" data-name="Group 37462" xmlns="http://www.w3.org/2000/svg" xmlns:xlink="http://www.w3.org/1999/xlink" width="153" height="48.236" viewBox="0 0 153 48.236">
  <defs>
    <clipPath id="clip-path">
      <rect id="Rectangle_20203" data-name="Rectangle 20203" width="153" height="48.236" fill="none"/>
    </clipPath>
  </defs>
  <g id="Group_37443" data-name="Group 37443" clip-path="url(#clip-path)">
    <path id="Path_40512" data-name="Path 40512" d="M19.314,24.512c0,4.994-4.331,7.195-8.941,7.195-6.5,0-9.6-3.423-10.373-7.719H2.934c.8,3.248,3.108,4.994,7.369,4.994,3.772,0,6.077-1.572,6.077-4.366,0-2.689-2.27-3.248-7.02-4.3C4.191,19.168.676,17.911.676,13.58.676,9,4.715,6.49,9.43,6.49c5.715,0,8.662,2.829,9.525,6.5H16.031c-.908-2.34-3-3.772-6.566-3.772s-5.9,1.629-5.9,4.366c0,2.026,1.537,2.794,6.461,3.912,5.833,1.289,9.29,2.41,9.29,7.02" transform="translate(0 -4.429)" fill="#fff"/>
    <path id="Path_40513" data-name="Path 40513" d="M87.278,24.2,74.318,52.141H71.209l5.1-11.071L68.52,24.2h3.108l6.217,13.761L84.167,24.2Z" transform="translate(-46.764 -16.516)" fill="#fff"/>
    <rect id="Rectangle_20202" data-name="Rectangle 20202" width="2.899" height="26.893" transform="translate(44.108)" fill="#fff"/>
    <path id="Path_40514" data-name="Path 40514" d="M181.012,33.852h-16.45a6.575,6.575,0,0,0,6.985,6.391,6.379,6.379,0,0,0,6.007-3.353h3a9.332,9.332,0,0,1-9.116,6.077,9.5,9.5,0,0,1-9.843-9.919c0-5.868,4.086-10.059,9.814-10.059,5.966,0,9.843,4.54,9.6,10.862M164.7,31.128h13.167a6.341,6.341,0,0,0-6.461-5.413,6.626,6.626,0,0,0-6.706,5.413" transform="translate(-110.291 -15.691)" fill="#fff"/>
    <path id="Path_40515" data-name="Path 40515" d="M233.63,32.979a9.742,9.742,0,0,1,9.919-9.989,9.223,9.223,0,0,1,9.325,7.09h-3a6.433,6.433,0,0,0-6.322-4.4c-4.051,0-6.985,3.073-6.985,7.3a6.934,6.934,0,0,0,6.985,7.3,6.477,6.477,0,0,0,6.322-4.4h3a9.233,9.233,0,0,1-9.325,7.09,9.738,9.738,0,0,1-9.919-10" transform="translate(-159.451 -15.691)" fill="#fff"/>
    <path id="Path_40516" data-name="Path 40516" d="M317.506,31.3a12.114,12.114,0,0,1-5.2,1.222c-4.128,0-6.88-2.654-6.88-7.719V15.649h-3.7V12.925h3.7V8.315l2.9-.635v5.245h8.627v2.724h-8.627v9.024c0,3.283,1.467,5.169,4.47,5.169a12.283,12.283,0,0,0,4.191-.953Z" transform="translate(-205.922 -5.242)" fill="#fff"/>
    <path id="Path_40517" data-name="Path 40517" d="M379.765,24.2V43.409h-2.9V39.6a7.3,7.3,0,0,1-6.845,4.194c-4.261,0-6.81-2.724-6.81-7.4V24.2h2.9V35.83c0,3.423,1.607,5.2,4.763,5.2,3.81,0,6.007-2.724,6.007-6.985V24.2Z" transform="translate(-247.889 -16.516)" fill="#fff"/>
    <path id="Path_40518" data-name="Path 40518" d="M427.67,36.61h2.969c.768,2.689,2.759,3.626,6.322,3.626,2.858,0,4.959-1.013,4.959-2.858s-2.13-2.27-5.658-3.143c-5.309-1.327-7.62-2.27-7.62-5.4,0-3.7,3.248-5.8,7.788-5.8s7.4,2.061,8.173,5.518h-2.934c-.733-1.956-2.585-2.759-5.169-2.759-3.108,0-4.925,1.187-4.925,2.829,0,1.537,1.537,1.956,5.413,2.934,4.925,1.222,7.893,1.991,7.893,5.588,0,3.947-3.6,5.868-7.938,5.868-5-.016-8.493-2.356-9.274-6.407" transform="translate(-291.882 -15.725)" fill="#fff"/>
    <path id="Path_40519" data-name="Path 40519" d="M6.9,120.858a3.011,3.011,0,0,1-2.95,3.27,2.7,2.7,0,0,1-2.413-1.394V124H.58v-8.8h.953v3.81a2.711,2.711,0,0,1,2.426-1.416A3,3,0,0,1,6.9,120.858m-.953,0a2.185,2.185,0,0,0-2.159-2.365,2.368,2.368,0,0,0,0,4.731,2.164,2.164,0,0,0,2.15-2.365Z" transform="translate(-0.396 -78.623)" fill="#fff"/>
    <path id="Path_40520" data-name="Path 40520" d="M35.768,123.13l-4.239,9.141H30.51l1.67-3.623-2.54-5.518h1.019l2.032,4.5,2.07-4.5Z" transform="translate(-20.229 -84.035)" fill="#fff"/>
    <path id="Path_40521" data-name="Path 40521" d="M84.379,120.942a3.624,3.624,0,1,1-3.624-3.624,3.555,3.555,0,0,1,3.624,3.483c0,.047,0,.094,0,.141m-6.412,0a2.788,2.788,0,1,0,2.788-2.821,2.755,2.755,0,0,0-2.772,2.737q0,.042,0,.084Z" transform="translate(-51.954 -79.062)" fill="#fff"/>
    <path id="Path_40522" data-name="Path 40522" d="M124.3,125.059v4.08h-.953V125.23c0-1.064-.479-1.588-1.419-1.588-1.187,0-1.772,1.019-1.772,2.286v3.223H119.2V125.23c0-1.064-.47-1.588-1.419-1.588-1.175,0-1.759,1.019-1.759,2.286v3.223h-.953v-6.3h.953v1.187a2.153,2.153,0,0,1,2.045-1.314,1.866,1.866,0,0,1,1.965,1.438,2.255,2.255,0,0,1,2.162-1.438c1.334,0,2.1.845,2.1,2.331" transform="translate(-78.535 -83.761)" fill="#fff"/>
    <path id="Path_40523" data-name="Path 40523" d="M161.933,125.147v3.988h-.952v-3.81c0-1.133-.559-1.705-1.588-1.705-1.27,0-1.991.9-1.991,2.286v3.223h-.953v-6.277h.953V124.1a2.359,2.359,0,0,1,2.251-1.372,2.159,2.159,0,0,1,2.28,2.423" transform="translate(-106.776 -83.757)" fill="#fff"/>
    <path id="Path_40524" data-name="Path 40524" d="M186.779,115.024a.664.664,0,1,1-.692-.634h.028a.635.635,0,0,1,.663.606c0,.01,0,.019,0,.029m-1.143,2.14h.953v6.283h-.953Z" transform="translate(-126.57 -78.069)" fill="#fff"/>
    <path id="Path_40525" data-name="Path 40525" d="M204.946,125.428a3.987,3.987,0,0,1-1.7.4c-1.349,0-2.251-.87-2.251-2.54v-2.994H199.78V119.4h1.213v-1.511l.953-.2V119.4h2.823v.889h-2.823v2.956c0,1.073.479,1.692,1.461,1.692a4.069,4.069,0,0,0,1.372-.318Z" transform="translate(-136.349 -80.323)" fill="#fff"/>
    <path id="Path_40526" data-name="Path 40526" d="M230.865,122.749v.972a3.3,3.3,0,0,0-.4-.022,2.169,2.169,0,0,0-2.223,2.467v2.972h-.953v-6.283h.953v1.4a2.292,2.292,0,0,1,2.242-1.53,3.054,3.054,0,0,1,.381.022" transform="translate(-155.124 -83.759)" fill="#fff"/>
    <path id="Path_40527" data-name="Path 40527" d="M254.652,122.849v6.283H253.7v-1.27a2.725,2.725,0,0,1-2.423,1.394,3.287,3.287,0,0,1,0-6.537,2.7,2.7,0,0,1,2.426,1.422v-1.289Zm-.953,3.14a2.241,2.241,0,0,0-2.251-2.365,2.375,2.375,0,0,0,0,4.731,2.258,2.258,0,0,0,2.264-2.365Z" transform="translate(-169.49 -83.755)" fill="#fff"/>
    <path id="Path_40528" data-name="Path 40528" d="M279.947,125.993a3.175,3.175,0,0,1,3.081-3.267c.056,0,.111,0,.167,0a3.02,3.02,0,0,1,3.051,2.321h-.984A2.1,2.1,0,0,0,283.2,123.6a2.392,2.392,0,0,0,0,4.778,2.118,2.118,0,0,0,2.067-1.441h.984a3.023,3.023,0,0,1-3.051,2.321,3.175,3.175,0,0,1-3.249-3.1c0-.057,0-.114,0-.171" transform="translate(-191.061 -83.758)" fill="#fff"/>
    <path id="Path_40529" data-name="Path 40529" d="M309.98,127.12h.972c.251.879.9,1.187,2.067,1.187.937,0,1.622-.318,1.622-.953s-.7-.743-1.851-1.029c-1.737-.432-2.489-.743-2.489-1.772,0-1.21,1.06-1.905,2.54-1.905a2.431,2.431,0,0,1,2.677,1.807h-.953c-.238-.635-.845-.9-1.692-.9-1.016,0-1.61.391-1.61.927s.5.635,1.772.953c1.61.4,2.581.651,2.581,1.829,0,1.292-1.175,1.921-2.594,1.921-1.648.032-2.791-.733-3.042-2.061" transform="translate(-211.559 -83.708)" fill="#fff"/>
  </g>
</svg>
